<?xml version="1.0" encoding="UTF-8" standalone="no"?><!DOCTYPE svg PUBLIC "-//W3C//DTD SVG 1.1//EN" "http://www.w3.org/Graphics/SVG/1.1/DTD/svg11.dtd"><svg width="100%" height="100%" viewBox="0 0 600 800" version="1.1" xmlns="http://www.w3.org/2000/svg" xmlns:xlink="http://www.w3.org/1999/xlink" xml:space="preserve" xmlns:serif="http://www.serif.com/" style="fill-rule:evenodd;clip-rule:evenodd;stroke-linejoin:round;stroke-miterlimit:2;"><path d="M275.921,296.303c97.537,-6.449 198.684,29.069 243.921,129.727c21.249,47.282 14.695,110.066 -21.146,160.522c-37.194,52.36 -106.702,89.915 -180.088,93.448l0.094,-113.549c76.39,-18.265 77.095,-76.212 69.592,-99.917c-11.039,-34.875 -74.203,-76.395 -135.093,-44.311l22.72,-125.92Zm-73.193,-176.303l57.182,81.46l-51.58,283.908c-2.496,42.244 24.131,68.161 72.25,82.027l-0.278,112.605c-131.191,-12.221 -225.022,-85.889 -210.822,-216.578l51.907,-287.048l81.341,-56.374Z" style="fill:rgb(255,238,195);fill-opacity:0.2375;"/></svg>